#!OML:ASF H:\LiuWeirdWalks\Patient Classification 1\Patient 1\Session 1\male.ASF
:FULLY-SPECIFIED
:DEGREES
337
root 1.84891 19.7767 1.85177 1.4833 6.83104 -6.46009
lowerback 14.4344 1.39301 -1.71037
upperback -0.428028 1.90265 3.81405
thorax -8.78264 1.09814 4.66845
lowerneck -22.7874 -1.30548 3.85628
upperneck 21.8366 -2.36222 -3.07638
head 10.7081 -1.14056 -2.11865
rclavicle -2.34069e-014 -2.10712e-014
rhumerus -56.3312 4.70441 -75.6979
rradius 48.6312
rwrist -10.8393
rhand -19.5479 4.28482
rfingers 7.12502
rthumb 6.77629 -25.5867
lclavicle -2.34069e-014 -2.10712e-014
lhumerus -43.8624 0.716785 74.5705
lradius 51.023
lwrist 8.7211
lhand -19.0158 -9.85378
lfingers 7.12502
lthumb 7.28985 20.0006
rfemur -17.0758 -9.70455 17.9806
rtibia 80.9106
rfoot -8.4853 -16.6666
rtoes -7.3709
lfemur -15.2275 -0.425865 -22.3671
ltibia 23.5225
lfoot 1.18054 7.94765
ltoes -11.8778
338
root 1.83927 19.7018 2.09104 1.46102 7.0272 -6.92811
lowerback 14.2378 1.41647 -1.45734
upperback -0.425595 1.9829 3.88504
thorax -8.66968 1.12581 4.58346
lowerneck -22.6103 -1.39161 3.82873
upperneck 21.9151 -2.50738 -2.91849
head 10.7012 -1.18712 -2.07779
rclavicle -2.22142e-014 2.59414e-014
rhumerus -55.9077 4.26984 -75.8125
rradius 46.9025
rwrist -10.6946
rhand -19.5452 4.47511
rfingers 7.12502
rthumb 6.77883 -25.3964
lclavicle -2.22142e-014 2.59414e-014
lhumerus -44.3114 1.34957 74.2814
lradius 50.625
lwrist 8.91856
lhand -19.0823 -9.63619
lfingers 7.12502
lthumb 7.22567 20.2204
rfemur -15.7742 -9.77371 18.7055
rtibia 79.7184
rfoot -8.61268 -17.0948
rtoes -7.08645
lfemur -16.2515 -0.677891 -21.7884
ltibia 21.7853
lfoot 2.0264 8.32596
ltoes -13.9513
339
root 1.83156 19.6124 2.3304 1.42989 7.17597 -7.43711
lowerback 14.0093 1.44051 -1.1591
upperback -0.422346 2.07061 3.96521
thorax -8.53657 1.15539 4.48157
lowerneck -22.3894 -1.47945 3.77829
upperneck 21.9621 -2.64791 -2.75101
head 10.6756 -1.23282 -2.02751
rclavicle -1.89591e-014 1.03368e-014
rhumerus -55.4594 3.88692 -75.9355
rradius 45.2006
rwrist -10.5103
rhand -19.5458 4.66381
rfingers 7.12502
rthumb 6.77827 -25.2077
lclavicle -1.89591e-014 1.03368e-014
lhumerus -44.79 1.92612 73.987
lradius 50.2165
lwrist 9.08557
lhand -19.1064 -9.46227
lfingers 7.12502
lthumb 7.20245 20.3952
rfemur -14.5435 -9.86348 19.4377
rtibia 78.6194
rfoot -8.75108 -17.4615
rtoes -6.87985
lfemur -17.3898 -0.950438 -21.1166
ltibia 20.5154
lfoot 2.99644 8.73389
ltoes -15.7298
340
root 1.82553 19.5078 2.56912 1.37256 7.26458 -8.00153
lowerback 13.7809 1.46793 -0.802983
upperback -0.416096 2.17162 4.05994
thorax -8.39927 1.18959 4.36011
lowerneck -22.174 -1.56185 3.71712
upperneck 22.0202 -2.77612 -2.58895
head 10.6559 -1.27451 -1.97582
rclavicle 3.3048e-015 -2.66371e-014
rhumerus -54.9896 3.53922 -76.0588
rradius 43.5256
rwrist -10.2383
rhand -19.5347 4.90005
rfingers 7.12502
rthumb 6.78897 -24.9711
lclavicle 3.3048e-015 -2.66371e-014
lhumerus -45.2794 2.48242 73.6814
lradius 49.7913
lwrist 9.19453
lhand -19.0966 -9.20448
lfingers 7.12502
lthumb 7.21193 20.6526
rfemur -13.3707 -9.95426 20.1923
rtibia 77.6131
rfoot -8.9188 -17.7605
rtoes -6.78352
lfemur -18.5547 -1.2463 -20.3265
ltibia 19.631
lfoot 4.06448 9.15568
ltoes -17.0995
341
root 1.82095 19.3876 2.80732 1.27209 7.29067 -8.61066
lowerback 13.5615 1.49729 -0.400004
upperback -0.400432 2.28158 4.16888
thorax -8.25569 1.22684 4.22599
lowerneck -21.9068 -1.61565 3.69763
upperneck 21.9778 -2.85808 -2.49628
head 10.5897 -1.30219 -1.94601
rclavicle -1.74154e-014 -1.95306e-014
rhumerus -54.4983 3.23325 -76.1799
rradius 41.8982
rwrist -9.86964
rhand -19.508 5.14405
rfingers 7.12502
rthumb 6.81475 -24.7263
lclavicle -1.74154e-014 -1.95306e-014
lhumerus -45.7734 3.03382 73.3643
lradius 49.3388
lwrist 9.25086
lhand -19.03 -8.93018
lfingers 7.12502
lthumb 7.27617 20.9247
rfemur -12.2418 -10.0419 20.953
rtibia 76.7273
rfoot -9.11512 -17.9974
rtoes -6.79131
lfemur -19.7326 -1.51557 -19.4322
ltibia 19.2005
lfoot 5.16224 9.5097
ltoes -17.9255
342
root 1.81718 19.2514 3.04429 1.11208 7.25007 -9.2465
lowerback 13.3767 1.5329 0.0316476
upperback -0.373681 2.40312 4.28734
thorax -8.11899 1.26926 4.08385
lowerneck -21.5886 -1.64792 3.71499
upperneck 21.8825 -2.9066 -2.45474
head 10.4945 -1.31898 -1.93365
rclavicle 2.59352e-015 1.58344e-014
rhumerus -54.0101 2.96933 -76.2986
rradius 40.3482
rwrist -9.39116
rhand -19.4577 5.37447
rfingers 7.12502
rthumb 6.86334 -24.4943
lclavicle 2.59352e-015 1.58344e-014
lhumerus -46.2839 3.56438 73.042
lradius 48.8788
lwrist 9.29386
lhand -18.917 -8.6705
lfingers 7.12502
lthumb 7.38526 21.1806
rfemur -11.1404 -10.1206 21.6977
rtibia 75.9738
rfoot -9.33651 -18.1721
rtoes -6.82467
lfemur -20.8804 -1.77192 -18.4509
ltibia 19.2206
lfoot 6.3023 9.73754
ltoes -18.0456
343
root 1.81378 19.0989 3.27995 0.879845 7.12042 -9.92551
lowerback 13.2393 1.58238 0.503094
upperback -0.3307 2.54903 4.42144
thorax -7.99139 1.32278 3.93118
lowerneck -21.2274 -1.67245 3.73445
upperneck 21.7574 -2.93917 -2.42718
head 10.3809 -1.33066 -1.92291
rclavicle 5.53708e-014 1.4064e-014
rhumerus -53.5307 2.73298 -76.4075
rradius 38.904
rwrist -8.82388
rhand -19.3707 5.56855
rfingers 7.12502
rthumb 6.94733 -24.2974
lclavicle 5.53708e-014 1.4064e-014
lhumerus -46.8037 4.08379 72.7122
lradius 48.3972
lwrist 9.26108
lhand -18.7699 -8.44515
lfingers 7.12502
lthumb 7.52727 21.4009
rfemur -10.0571 -10.1699 22.4435
rtibia 75.3606
rfoot -9.59107 -18.298
rtoes -6.90638
lfemur -21.9822 -1.95672 -17.3772
ltibia 19.7158
lfoot 7.49708 9.72419
ltoes -17.1415
344
root 1.8099 18.9323 3.51405 0.583889 6.91492 -10.6071
lowerback 13.1376 1.64424 0.961027
upperback -0.269528 2.70845 4.56512
thorax -7.8651 1.38422 3.79417
lowerneck -20.8434 -1.67581 3.79069
upperneck 21.6257 -2.9411 -2.44552
head 10.2607 -1.33112 -1.92962
rclavicle -1.92697e-014 -3.2054e-014
rhumerus -53.0686 2.52207 -76.504
rradius 37.5809
rwrist -8.17805
rhand -19.2647 5.75376
rfingers 7.12502
rthumb 7.0496 -24.1088
lclavicle -1.92697e-014 -3.2054e-014
lhumerus -47.3467 4.56514 72.3921
lradius 47.933
lwrist 9.21493
lhand -18.5961 -8.30882
lfingers 7.12502
lthumb 7.69503 21.5312
rfemur -8.99593 -10.2163 23.1435
rtibia 74.8843
rfoot -9.86556 -18.3808
rtoes -7.04118
lfemur -22.9778 -1.86475 -16.3337
ltibia 20.7082
lfoot 8.40874 9.23047
ltoes -15.5311
345
root 1.80541 18.7523 3.74682 0.219493 6.6395 -11.261
lowerback 13.0987 1.71894 1.38269
upperback -0.198664 2.87982 4.70909
thorax -7.76504 1.45355 3.67551
lowerneck -20.463 -1.67913 3.83277
upperneck 21.5565 -2.93841 -2.46358
head 10.1642 -1.32957 -1.93457
rclavicle -1.44243e-014 -2.47487e-014
rhumerus -52.6508 2.34419 -76.5911
rradius 36.3902
rwrist -7.47057
rhand -19.1659 5.98174
rfingers 7.12502
rthumb 7.14502 -23.8776
lclavicle -1.44243e-014 -2.47487e-014
lhumerus -47.9317 4.97526 72.0902
lradius 47.4976
lwrist 9.14111
lhand -18.4013 -8.25316
lfingers 7.12502
lthumb 7.88303 21.5799
rfemur -7.94325 -10.2746 23.7563
rtibia 74.5622
rfoot -10.1919 -18.4347
rtoes -7.25542
lfemur -23.8702 -1.42967 -15.4033
ltibia 22.3157
lfoot 8.59211 8.27261
ltoes -13.5162
346
root 1.80108 18.5664 3.97852 -0.209903 6.3248 -11.8658
lowerback 13.123 1.79575 1.75571
upperback -0.117326 3.04758 4.84866
thorax -7.69019 1.52333 3.57989
lowerneck -20.1167 -1.65976 3.90121
upperneck 21.568 -2.90565 -2.51361
head 10.1034 -1.31456 -1.95323
rclavicle 3.0091e-014 -3.8763e-015
rhumerus -52.2761 2.20015 -76.6714
rradius 35.3552
rwrist -6.76712
rhand -19.0879 6.23828
rfingers 7.12502
rthumb 7.22032 -23.6185
lclavicle 3.0091e-014 -3.8763e-015
lhumerus -48.5408 5.32869 71.8116
lradius 47.0824
lwrist 9.01628
lhand -18.1959 -8.24049
lfingers 7.12502
lthumb 8.08123 21.585
rfemur -6.87953 -10.3803 24.2496
rtibia 74.3679
rfoot -10.5754 -18.4684
rtoes -7.52064
lfemur -24.6651 -0.687209 -14.6463
ltibia 24.5762
lfoot 7.7226 6.97278
ltoes -11.7248
